<svg id="Layer_1" data-name="Layer 1" xmlns="http://www.w3.org/2000/svg" xmlns:xlink="http://www.w3.org/1999/xlink" viewBox="0 0 118.73 102.83"><defs><style>.cls-1{fill:#ff0;fill-opacity:0.5;stroke:#000;}.cls-1,.cls-4{stroke-miterlimit:10;}.cls-2{fill:url(#linear-gradient);}.cls-3{fill:#006837;}.cls-4{fill:none;stroke:red;}.cls-5{fill:url(#linear-gradient-2);}.cls-6{fill:url(#linear-gradient-3);}</style><linearGradient id="linear-gradient" x1="135.44" y1="248.53" x2="155.41" y2="264.75" gradientUnits="userSpaceOnUse"><stop offset="0" stop-color="red"/><stop offset="0.1" stop-color="#fd0904"/><stop offset="0.26" stop-color="#f6220e"/><stop offset="0.36" stop-color="#f13717"/><stop offset="0.59" stop-color="#ea5121"/><stop offset="0.69" stop-color="#de431b"/><stop offset="0.87" stop-color="#bd1d0c"/><stop offset="1" stop-color="#a30000"/></linearGradient><linearGradient id="linear-gradient-2" x1="57.56" y1="50.79" x2="61.08" y2="50.79" gradientUnits="userSpaceOnUse"><stop offset="0" stop-color="#603813"/><stop offset="0.46" stop-color="#2c1a09"/><stop offset="0.81" stop-color="#0c0702"/><stop offset="1"/></linearGradient><linearGradient id="linear-gradient-3" x1="45.89" y1="41.67" x2="76.03" y2="64.15" gradientUnits="userSpaceOnUse"><stop offset="0" stop-color="#006837"/><stop offset="0.17" stop-color="#006435"/><stop offset="0.33" stop-color="#00592f"/><stop offset="0.48" stop-color="#004625"/><stop offset="0.63" stop-color="#002c17"/><stop offset="0.78" stop-color="#000b06"/><stop offset="0.82"/></linearGradient></defs><title>ForestFireNEW</title><polygon class="cls-1" points="59.37 101.83 117.87 0.5 0.87 0.5 59.37 101.83"/><path class="cls-2" d="M146.46,232.23s10.83,15.82,1.17,31.63a15.7,15.7,0,0,0,8.2-5.57s3.8,10.54-4.69,16.11c0,0-7.58,5-14.93,0,0,0-13.9-11.13,2.27-22.55C138.48,251.85,146.75,245.12,146.46,232.23Z" transform="translate(-84.69 -228.23)"/><path class="cls-3" d="M147.4,229.31" transform="translate(-84.69 -228.23)"/><path class="cls-3" d="M151.69,237.43" transform="translate(-84.69 -228.23)"/><path class="cls-3" d="M154.64,246.22" transform="translate(-84.69 -228.23)"/><path class="cls-4" d="M155.09,264.34" transform="translate(-84.69 -228.23)"/><rect class="cls-5" x="57.56" y="28.53" width="3.51" height="44.51"/><polygon class="cls-6" points="76.47 64.91 67.18 52.25 73.52 52.25 63.43 38.49 69.24 38.49 59.15 24.73 48.31 38.49 54.86 38.49 44.02 52.25 51.05 52.25 41.08 64.91 76.47 64.91"/></svg>