<svg id="Layer_1" data-name="Layer 1" xmlns="http://www.w3.org/2000/svg" viewBox="0 0 118.75 102.84"><defs><style>.cls-1{fill:#ff0;fill-opacity:0.5;}.cls-1,.cls-2{stroke:#000;stroke-miterlimit:10;}.cls-2{fill:none;}</style></defs><title>Untitled-4</title><polygon class="cls-1" points="59.38 101.84 117.89 0.5 0.87 0.5 59.38 101.84"/><path class="cls-2" d="M150,266.26a10.75,10.75,0,0,1,11.08,10.21c.09,5.68-4.9,10.53-10.08,10.44-3.42-.06-7.71-2.28-8.56-6.39-.74-3.57,1.22-8.07,4.81-8.9,3.05-.7,7.21,1.28,7.37,4.17.1,1.73-1.26,3.5-3.26,4.6" transform="translate(-84.68 -228.22)"/><line class="cls-2" x1="28.07" y1="38.04" x2="65.48" y2="38.04"/><path class="cls-2" d="M166.45,262.43a10.73,10.73,0,0,0,11.07-10.2c.1-5.69-4.89-10.53-10.08-10.44-3.41.06-7.71,2.28-8.56,6.39-.74,3.57,1.22,8.07,4.81,8.89,3.05.7,7.21-1.28,7.38-4.16.09-1.74-1.27-3.51-3.26-4.6" transform="translate(-84.68 -228.22)"/><line class="cls-2" x1="44.54" y1="34.21" x2="81.94" y2="34.21"/><path class="cls-2" d="M139.28,257.5a8.16,8.16,0,0,0,8.41-7.76,7.94,7.94,0,0,0-7.66-7.93c-2.59,0-5.86,1.73-6.51,4.85-.56,2.72.94,6.13,3.66,6.76,2.32.53,5.48-1,5.61-3.17a4.15,4.15,0,0,0-2.48-3.49" transform="translate(-84.68 -228.22)"/><line class="cls-2" x1="26.3" y1="29.27" x2="54.73" y2="29.27"/></svg>