<svg id="Layer_1" data-name="Layer 1" xmlns="http://www.w3.org/2000/svg" viewBox="0 0 118.75 102.84"><defs><style>.cls-1{fill:#ff0;fill-opacity:0.5;stroke:#000;}.cls-1,.cls-2{stroke-miterlimit:10;}.cls-2{fill:none;stroke:red;stroke-width:4px;}</style></defs><title>PowerOutage</title><polygon class="cls-1" points="59.38 101.84 117.89 0.5 0.87 0.5 59.38 101.84"/><circle class="cls-2" cx="59.48" cy="34.22" r="25.93"/><line class="cls-2" x1="41.6" y1="14.9" x2="78.29" y2="52.02"/><polygon points="60.57 14.48 64.2 16.02 58.62 29.13 55.55 26.48 60.57 14.48"/><polygon points="54.16 30.67 50.67 39.32 60.02 36.67 57.92 34.44 56.25 34.85 56.67 33.32 54.16 30.67"/><polygon points="62.53 33.18 66.02 32.48 65.04 35.69 62.53 33.18"/><polygon points="62.95 39.74 58.9 48.95 61.69 48.95 55.69 53.55 54.71 46.16 56.25 47.97 60.85 37.64 62.95 39.74"/></svg>