<svg id="Layer_1" data-name="Layer 1" xmlns="http://www.w3.org/2000/svg" viewBox="0 0 118.75 113.88"><defs><style>.cls-1,.cls-4{fill:none;stroke:red;}.cls-1,.cls-2,.cls-3,.cls-4{stroke-miterlimit:10;}.cls-1,.cls-3{stroke-width:2px;}.cls-2{fill:#ff0;fill-opacity:0.5;}.cls-2,.cls-3{stroke:#000;}.cls-4{stroke-width:4px;}</style></defs><title>PowerOutage</title><path class="cls-1" d="M140.07,323.7c-12.41.69-22.58,4.36-22.58,8.68,0,4.82,11.74,8.72,26.23,8.72S170,337.2,170,332.38c0-4.32-10.2-7.89-22.62-8.58" transform="translate(-84.34 -228.22)"/><path class="cls-1" d="M145.36,327.27c7.08.37,13.19,2.42,13.19,4.88,0,2.72-6.64,4.93-14.83,4.93s-14.83-2.21-14.83-4.93c0-2.46,6-4.51,13-4.88" transform="translate(-84.34 -228.22)"/><polygon class="cls-2" points="59.38 101.84 117.89 0.5 0.87 0.5 59.38 101.84"/><polygon class="cls-3" points="62.83 13.64 66.45 15.18 60.87 28.3 57.8 25.64 62.83 13.64"/><polygon class="cls-3" points="64.64 39.74 60.59 48.95 63.38 48.95 57.38 53.55 56.41 46.16 57.94 47.97 62.55 37.64 64.64 39.74"/><circle class="cls-4" cx="61.18" cy="34.22" r="25.93"/><line class="cls-4" x1="43.29" y1="14.9" x2="79.99" y2="52.02"/><polygon class="cls-3" points="55.01 30.99 51.52 39.64 60.87 36.99 58.78 34.76 57.1 35.18 57.52 33.64 55.01 30.99"/><polygon class="cls-3" points="65.06 32.48 68.55 31.78 67.57 34.99 65.06 32.48"/></svg>